# xmcd CD database file
#
# Track frame offsets:
#	182
#	15897
#	32722
#	49112
#	67432
#	84492
#	104537
#	122447
#	139242
#	155052
#
# Disc length: 2316 seconds
#
# Revision: 6
# Processed by: cddbd v1.5.1PL0 Copyright (c) Steve Scherf et al.
# Submitted via: CDex 1.51
#
DISCID=85090a0a
DTITLE=Sleeze Beez - Screwed Blued and Tattooed
DYEAR=1990
DGENRE=Hair Metal
TTITLE0=Rock In The Western World
TTITLE1=House Is On Fire
TTITLE2=Screwed Blued 'n Tattooed
TTITLE3=Stranger Than Paradise
TTITLE4=Damned If We Do, Damned If We Don't
TTITLE5=Heroes Die Young
TTITLE6=This Time
TTITLE7=When The Brains Go To The Balls
TTITLE8=Don't Talk About Roses
TTITLE9=Girls Girls, Nasty Nasty
EXTD=YEAR: 1990
EXTT0=
EXTT1=
EXTT2=
EXTT3=
EXTT4=
EXTT5=
EXTT6=
EXTT7=
EXTT8=
EXTT9=
PLAYORDER=
